<?xml version="1.0" standalone="no"?>
<!DOCTYPE svg PUBLIC "-//W3C//DTD SVG 20010904//EN"
 "http://www.w3.org/TR/2001/REC-SVG-20010904/DTD/svg10.dtd">
<svg version="1.0" xmlns="http://www.w3.org/2000/svg"
 width="661.000000pt" height="715.000000pt" viewBox="0 0 661.000000 715.000000"
 preserveAspectRatio="xMidYMid meet">
<metadata>
Created by potrace 1.15, written by Peter Selinger 2001-2017
</metadata>
<g transform="translate(0.000000,715.000000) scale(0.100000,-0.100000)"
fill="#2E6EA7" stroke="none">
<path d="M0 6943 l0 -208 108 -96 c530 -472 1011 -850 1588 -1247 105 -73 196
-132 203 -132 6 0 68 41 137 91 934 671 1991 1253 3129 1720 l190 78 -2677 1
-2678 0 0 -207z"/>
<path d="M6470 7114 c-1309 -363 -2469 -835 -3605 -1467 -282 -156 -823 -483
-814 -491 13 -12 391 -244 528 -325 134 -79 469 -267 567 -319 18 -9 36 -2
125 49 973 564 2082 1046 3159 1374 l175 53 3 581 c1 320 -1 581 -5 580 -5 0
-64 -16 -133 -35z"/>
<path d="M0 5931 l0 -770 128 -114 c173 -157 409 -358 585 -501 l146 -118 29
24 c16 12 108 89 203 169 193 161 348 285 547 437 l133 101 -62 48 c-405 310
-729 581 -1083 902 -164 149 -519 491 -579 559 -16 17 -33 32 -38 32 -5 0 -9
-322 -9 -769z"/>
<path d="M6435 5520 c-1029 -287 -2041 -671 -2878 -1092 l-129 -64 269 -131
c288 -141 580 -272 896 -403 l199 -82 218 91 c503 210 1089 419 1537 548 l63
18 0 583 c0 320 -1 582 -2 581 -2 -1 -79 -22 -173 -49z"/>
<path d="M0 4379 l0 -753 58 55 c31 30 129 125 217 210 89 84 243 228 343 319
l183 165 -33 29 c-123 108 -394 362 -565 530 l-203 199 0 -754z"/>
<path d="M1714 4937 c-268 -181 -721 -506 -777 -557 -21 -19 946 -709 976
-697 7 3 71 46 142 97 181 128 541 369 725 484 85 54 156 98 157 100 2 1 -61
43 -140 91 -181 113 -550 361 -735 493 -78 57 -148 105 -155 107 -6 2 -93 -51
-193 -118z"/>
<path d="M698 4189 c-245 -198 -668 -561 -690 -593 -4 -6 -2 -17 5 -24 39 -48
755 -656 834 -709 21 -14 28 -10 152 96 163 139 500 410 654 525 65 49 116 92
115 96 -2 4 -88 74 -193 155 -192 149 -482 386 -632 515 l-81 70 -164 -131z"/>
<path d="M2983 4126 c-459 -251 -934 -539 -917 -555 43 -39 656 -403 934 -555
l174 -96 41 24 c293 171 749 415 1024 547 l163 79 -233 116 c-293 146 -494
253 -772 410 -119 68 -223 124 -230 124 -6 0 -89 -42 -184 -94z"/>
<path d="M6565 3969 c-16 -5 -149 -43 -295 -84 -282 -79 -980 -304 -980 -316
0 -20 1090 -362 1288 -404 l32 -7 0 411 c0 226 -3 411 -7 410 -5 -1 -21 -5
-38 -10z"/>
<path d="M0 2796 l0 -758 222 214 c269 258 332 317 468 438 58 52 106 97 108
101 1 3 -66 69 -150 145 -175 159 -315 291 -510 483 l-138 136 0 -759z"/>
<path d="M1710 3349 c-377 -255 -773 -545 -764 -560 22 -37 898 -662 959 -685
9 -4 68 32 147 89 244 174 609 415 895 591 1 1 -60 39 -135 86 -185 116 -553
362 -744 498 -86 62 -159 112 -161 112 -2 0 -91 -59 -197 -131z"/>
<path d="M4560 3296 c-350 -144 -766 -333 -1024 -463 l-99 -50 179 -87 c890
-437 1828 -794 2779 -1057 99 -27 188 -52 198 -55 16 -5 17 25 15 572 l-3 577
-40 13 c-22 7 -143 44 -268 84 -408 127 -866 294 -1275 466 -122 52 -226 94
-230 94 -4 0 -108 -42 -232 -94z"/>
<path d="M685 2593 c-194 -157 -380 -315 -567 -481 l-118 -104 0 -774 c0 -426
3 -774 6 -774 4 0 95 87 203 193 457 448 1112 1009 1546 1324 17 12 28 23 25
26 -3 2 -52 39 -109 82 -157 118 -385 301 -585 469 -98 83 -188 159 -200 168
-21 16 -26 13 -201 -129z"/>
<path d="M2945 2519 c-352 -193 -875 -505 -875 -521 0 -15 538 -340 866 -523
268 -149 896 -463 1177 -589 554 -247 1132 -468 1677 -642 224 -72 783 -234
806 -234 12 0 14 87 14 574 l0 575 -87 26 c-1090 325 -2194 800 -3177 1364
-87 50 -163 91 -170 91 -6 0 -110 -54 -231 -121z"/>
<path d="M1724 1772 c-349 -235 -642 -450 -969 -710 -263 -210 -571 -470 -702
-594 l-53 -50 0 -209 0 -209 2688 1 c1583 0 2679 4 2667 9 -11 5 -110 46 -220
91 -1065 434 -2119 1016 -3069 1693 -81 58 -149 106 -150 106 -1 0 -87 -57
-192 -128z"/>
</g>
</svg>
